<?xml version="1.0" encoding="utf-8"?>
<!-- Generator: Adobe Illustrator 24.1.2, SVG Export Plug-In . SVG Version: 6.00 Build 0)  -->
<svg version="1.1"
	 id="svg2" inkscape:version="0.48.2 r9819" sodipodi:docname="igd_85mm_rgb23-156-125-emf.svg" xmlns:cc="http://creativecommons.org/ns#" xmlns:dc="http://purl.org/dc/elements/1.1/" xmlns:inkscape="http://www.inkscape.org/namespaces/inkscape" xmlns:rdf="http://www.w3.org/1999/02/22-rdf-syntax-ns#" xmlns:sodipodi="http://sodipodi.sourceforge.net/DTD/sodipodi-0.dtd" xmlns:svg="http://www.w3.org/2000/svg"
	 xmlns="http://www.w3.org/2000/svg" xmlns:xlink="http://www.w3.org/1999/xlink" x="0px" y="0px" viewBox="0 0 241 66"
	 style="enable-background:new 0 0 241 66;" xml:space="preserve">
<style type="text/css">
	.st0{display:none;}
	.st1{display:inline;}
	.st2{fill:#FFFFFF;}
	.st3{clip-path:url(#SVGID_2_);fill:#fff;}
	.st4{fill:#fff;}
	.st5{fill:none;}
	.st6{fill:#fff;}
	.st7{fill:#179C7D;}
</style>
<sodipodi:namedview  bordercolor="#666666" borderopacity="1" gridtolerance="10" guidetolerance="10" id="namedview85" inkscape:current-layer="svg2" inkscape:cx="-113.06092" inkscape:cy="33.262" inkscape:pageopacity="0" inkscape:pageshadow="2" inkscape:window-height="838" inkscape:window-maximized="1" inkscape:window-width="1600" inkscape:window-x="-8" inkscape:window-y="-8" inkscape:zoom="0.81944444" objecttolerance="10" pagecolor="#ffffff" showgrid="false">
	</sodipodi:namedview>
<g id="Ebene_1" class="st0">
	<g id="g5" class="st1">
		<path id="path7" d="M0,39.2c9.2-4.8,22.8-12.5,39-23.8c0-3.8,0-3.8,0-3.8C24.8,21,10.2,28.5,0,33.5V39.2z"/>
		<path id="path9" d="M0,28c10.2-4.2,24.8-10.8,39-19.2C39,7,39,7,39,7C25.5,13.5,11.8,17.8,0,20.2V28z"/>
		<path id="path11" d="M39,39.2c0-19,0-19,0-19c-9,7.5-17.8,14-25,19H39z"/>
		<path id="path13" d="M9,39.2c7-4,15.5-9.5,24-15.8c2-1.5,4-3.2,6-4.8c0-2.2,0-2.2,0-2.2C26.5,25.8,13.5,33.8,3.5,39.2H9z"/>
		<path id="path15" d="M0,17.5c11.2-2,25.2-5.5,39-12c0-2.2,0-2.2,0-2.2C25.2,9.5,11.5,12,0,13V17.5z"/>
		<path id="path17" d="M0,0c0,11,0,11,0,11c0.8,0,1.8,0,2.5-0.2C12,10,25,8.5,39,2.5C39,0,39,0,39,0H0z"/>
		<path id="path19" class="st2" d="M0,11c0,2,0,2,0,2c11.5-1,25.2-3.5,39-9.8c0-0.8,0-0.8,0-0.8c-14,6-27,7.5-36.5,8.2
			C1.8,11,0.8,11,0,11L0,11z"/>
		<path id="path21" class="st2" d="M0,20.2C11.8,17.8,25.5,13.5,39,7c0-1.5,0-1.5,0-1.5c-13.8,6.5-27.8,10-39,12V20.2z"/>
		<path id="path23" class="st2" d="M0,33.5c10.2-5,24.8-12.5,39-21.8c0-3,0-3,0-3C24.8,17.2,10.2,23.8,0,28V33.5z"/>
		<path id="path25" class="st2" d="M9,39.2c5,0,5,0,5,0c7.2-5,16-11.5,25-19c0-1.5,0-1.5,0-1.5c-2,1.5-4,3.2-6,4.8
			C24.5,29.8,16,35.2,9,39.2L9,39.2z"/>
		<path id="path27" class="st2" d="M0,39.2c3.5,0,3.5,0,3.5,0c10-5.5,23-13.5,35.5-22.8c0-1,0-1,0-1C22.8,26.8,9.2,34.5,0,39.2
			L0,39.2z"/>
		<g id="g29">
			<g>
				<g>
					<defs>
						<rect id="SVGID_1_" x="52.2" y="10.8" width="188.8" height="29"/>
					</defs>
					<clipPath id="SVGID_2_">
						<use xlink:href="#SVGID_1_"  style="overflow:visible;"/>
					</clipPath>
					<path id="path37" class="st3" d="M229.5,39.2c5,0,5,0,5,0c0-7,0-7,0-7c0-2.8,0-8,4-8c1,0,2,0.2,2.5,0.5c0-5,0-5,0-5
						c-0.8-0.2-1.2-0.2-1.8-0.2c-3,0-5,3-5.2,5l0,0c0-4.5,0-4.5,0-4.5c-4.5,0-4.5,0-4.5,0V39.2z M224.5,34.2c-2,1-4,1.8-6.5,1.8
						c-3,0-5.2-1.8-5.5-4.8c13.5,0,13.5,0,13.5,0c0-6.8-2-11.8-9.2-11.8c-6,0-9,4.8-9,10.2c0,6.2,3.8,10,10,10c2.8,0,5-0.5,6.8-1.5
						v-3.9H224.5z M212.5,27.8c0.2-2.5,1.8-4.5,4.5-4.5s4,2,4,4.5H212.5z M196.5,39.2c5,0,5,0,5,0c0-15.5,0-15.5,0-15.5
						c4.5,0,4.5,0,4.5,0c0-3.8,0-3.8,0-3.8c-4.5,0-4.5,0-4.5,0c0-2.5,0-2.5,0-2.5c0-1.5,0.5-2.8,2.2-2.8c1,0,1.8,0.2,2.2,0.5
						c0.2-4,0.2-4,0.2-4c-1-0.2-2.2-0.5-3.5-0.5c-4,0-6.2,2.8-6.2,6.5c0,2.8,0,2.8,0,2.8c-3.8,0-3.8,0-3.8,0c0,3.8,0,3.8,0,3.8
						c3.8,0,3.8,0,3.8,0v15.5H196.5z M176.5,29.2c0-3,1.5-5.8,4.8-5.8c3.5,0,5,2.8,5,5.8c0,3.2-1,6.8-5,6.8
						C177.5,36,176.5,32.5,176.5,29.2 M171.2,29.8c0,5.5,3.8,10,10,10c6.5,0,10.2-4.5,10.2-10c0-6.2-4.5-10.2-10.2-10.2
						C175.8,19.5,171.2,23.5,171.2,29.8 M150.2,39.2c5,0,5,0,5,0c0-9.2,0-9.2,0-9.2c0-2.5,1-6.5,4.5-6.5c3.2,0,3.2,3.2,3.2,5.5
						c0,10.2,0,10.2,0,10.2c5,0,5,0,5,0c0-12,0-12,0-12c0-4.5-2-7.8-6.5-7.8c-2.5,0-4.8,1.2-6,3.2c-0.2,0-0.2,0-0.2,0
						c0-11.5,0-11.5,0-11.5c-5,0-5,0-5,0V39.2z M127.5,39.2c5,0,5,0,5,0c0-9.2,0-9.2,0-9.2c0-2.5,0.8-6.5,4.5-6.5
						c3,0,3.2,3.2,3.2,5.5c0,10.2,0,10.2,0,10.2c5,0,5,0,5,0c0-12,0-12,0-12c0-4.5-2-7.8-6.8-7.8c-2.5,0-4.8,1-6.2,3.2l0,0
						c0-2.8,0-2.8,0-2.8c-4.8,0-4.8,0-4.8,0v19.4H127.5z M122.2,20c-5,0-5,0-5,0c0,9.5,0,9.5,0,9.5c0,2.5-0.8,6.5-4.5,6.5
						c-3.2,0-3.2-3.2-3.2-5.8c0-10.2,0-10.2,0-10.2c-5,0-5,0-5,0c0,12.2,0,12.2,0,12.2c0,4.2,2,7.5,6.5,7.5c2.8,0,4.8-1.2,6.5-3l0,0
						c0,2.5,0,2.5,0,2.5c4.8,0,4.8,0,4.8,0V20H122.2z M88,33.8c0-3,3.2-3.2,5.5-3.2s2.2,0,2.2,0c0,1.5-0.2,2.8-1,4
						c-0.8,1-2,1.5-3.5,1.5C89.2,36,88,35.5,88,33.8 M85.5,25.2c1.5-1.2,3.8-2,6-2c2.8,0,4.2,1,4.2,4.2c-2.8,0-2.8,0-2.8,0
						c-2.2,0-4.5,0-6.5,1s-3.2,2.8-3.2,5.5c0,3.8,3.2,5.8,6.8,5.8c2.2,0,4.8-1.2,6-3.2l0,0c0,0.5,0,1.8,0.2,2.8c4.2,0,4.2,0,4.2,0
						c0-1.5,0-2.8,0-4.2c-0.2-1.5-0.2-2.8-0.2-4.8c0-2.5,0-2.5,0-2.5c0-5.8-2.5-8.2-8.2-8.2c-2.2,0-4.8,0.8-6.8,1.5L85.5,25.2z
						 M70.2,39.2c5,0,5,0,5,0c0-7,0-7,0-7c0-2.8,0-8,4.2-8c0.8,0,1.8,0.2,2.2,0.5c0-5,0-5,0-5c-0.5-0.2-1.2-0.2-1.5-0.2
						c-3,0-5.2,3-5.5,5l0,0c0-4.5,0-4.5,0-4.5c-4.5,0-4.5,0-4.5,0v19.2H70.2z M52.2,39.2c5.2,0,5.2,0,5.2,0c0-11.5,0-11.5,0-11.5
						c8.8,0,8.8,0,8.8,0c0-4,0-4,0-4c-8.8,0-8.8,0-8.8,0c0-6.5,0-6.5,0-6.5c9.2,0,9.2,0,9.2,0c0-4,0-4,0-4c-14.5,0-14.5,0-14.5,0
						L52.2,39.2L52.2,39.2z"/>
				</g>
			</g>
		</g>
		<polygon id="polygon39" class="st4" points="210.5,52.8 213,52.8 213,65.8 210.5,65.8 		"/>
		<path id="path41" class="st4" d="M223,54.5c-1.5,0-2.5,0.5-3.2,1.2c-0.8,1-1.2,2.2-1.2,3.5c0,1.5,0.5,2.5,1.2,3.2
			c0.8,1,1.8,1.5,3,1.5c0.8,0,1.2-0.2,1.8-0.2c0-3.5,0-3.5,0-3.5c-2.8,0-2.8,0-2.8,0c0-2,0-2,0-2c5.2,0,5.2,0,5.2,0c0,7,0,7,0,7
			c-1.5,0.5-2.8,0.8-4.2,0.8c-2,0-3.8-0.5-5-1.8c-1.2-1-2-2.5-2-4.8c0.2-4.8,2.5-7,7-7c1.5,0,2.8,0.2,3.8,0.5
			c-0.2,2.2-0.2,2.2-0.2,2.2C225.2,54.8,224.2,54.5,223,54.5L223,54.5z"/>
		<path id="path43" class="st4" d="M230,52.8c3.5,0,3.5,0,3.5,0c2,0,3.8,0.2,5.2,1.2c0.5,0.5,1.2,1.2,1.5,2c0.5,0.8,0.5,2,0.5,3.2
			s0,2.2-0.5,3.2c-0.2,0.8-1,1.5-1.5,2c-0.8,0.5-1.5,0.8-2.5,1c-0.8,0.2-1.8,0.2-2.8,0.2c-3.5,0-3.5,0-3.5,0V52.8H230z M232.8,63.8
			c1.2,0,1.2,0,1.2,0c1.2,0,2.2-0.5,3-1.2s1.2-1.8,1.2-3.2s-0.5-2.5-1.2-3.2s-1.8-1.2-3-1.2s-1.2,0-1.2,0V63.8z"/>
	</g>
</g>
<rect x="52.2" y="10.8" class="st5" width="188.8" height="29"/>
<path id="path54" class="st6" d="M229.5,39.2c5,0,5,0,5,0c0-7,0-7,0-7c0-2.8,0-8,4-8c1,0,2,0.2,2.5,0.5c0-5,0-5,0-5
	c-0.8-0.2-1.2-0.2-1.8-0.2c-3,0-5,3-5.2,5l0,0c0-4.5,0-4.5,0-4.5c-4.5,0-4.5,0-4.5,0V39.2z M224.5,34.2c-2,1-4,1.8-6.5,1.8
	c-3,0-5.2-1.8-5.5-4.8c13.5,0,13.5,0,13.5,0c0-6.8-2-11.8-9.2-11.8c-6,0-9,4.8-9,10.2c0,6.2,3.8,10,10,10c2.8,0,5-0.5,6.8-1.5v-3.9
	H224.5z M212.5,27.8c0.2-2.5,1.8-4.5,4.5-4.5s4,2,4,4.5H212.5z M196.5,39.2c5,0,5,0,5,0c0-15.5,0-15.5,0-15.5c4.5,0,4.5,0,4.5,0
	c0-3.8,0-3.8,0-3.8c-4.5,0-4.5,0-4.5,0c0-2.5,0-2.5,0-2.5c0-1.5,0.5-2.8,2.2-2.8c1,0,1.8,0.2,2.2,0.5c0.2-4,0.2-4,0.2-4
	c-1-0.2-2.2-0.5-3.5-0.5c-4,0-6.2,2.8-6.2,6.5c0,2.8,0,2.8,0,2.8c-3.8,0-3.8,0-3.8,0c0,3.8,0,3.8,0,3.8c3.8,0,3.8,0,3.8,0v15.5
	H196.5z M176.5,29.2c0-3,1.5-5.8,4.8-5.8c3.5,0,5,2.8,5,5.8c0,3.2-1,6.8-5,6.8C177.5,36,176.5,32.5,176.5,29.2 M171.2,29.8
	c0,5.5,3.8,10,10,10c6.5,0,10.2-4.5,10.2-10c0-6.2-4.5-10.2-10.2-10.2C175.8,19.5,171.2,23.5,171.2,29.8 M150.2,39.2c5,0,5,0,5,0
	c0-9.2,0-9.2,0-9.2c0-2.5,1-6.5,4.5-6.5c3.2,0,3.2,3.2,3.2,5.5c0,10.2,0,10.2,0,10.2c5,0,5,0,5,0c0-12,0-12,0-12
	c0-4.5-2-7.8-6.5-7.8c-2.5,0-4.8,1.2-6,3.2c-0.2,0-0.2,0-0.2,0c0-11.5,0-11.5,0-11.5c-5,0-5,0-5,0V39.2z M127.5,39.2c5,0,5,0,5,0
	c0-9.2,0-9.2,0-9.2c0-2.5,0.8-6.5,4.5-6.5c3,0,3.2,3.2,3.2,5.5c0,10.2,0,10.2,0,10.2c5,0,5,0,5,0c0-12,0-12,0-12
	c0-4.5-2-7.8-6.8-7.8c-2.5,0-4.8,1-6.2,3.2l0,0c0-2.8,0-2.8,0-2.8c-4.8,0-4.8,0-4.8,0v19.4H127.5z M122.2,20c-5,0-5,0-5,0
	c0,9.5,0,9.5,0,9.5c0,2.5-0.8,6.5-4.5,6.5c-3.2,0-3.2-3.2-3.2-5.8c0-10.2,0-10.2,0-10.2c-5,0-5,0-5,0c0,12.2,0,12.2,0,12.2
	c0,4.2,2,7.5,6.5,7.5c2.8,0,4.8-1.2,6.5-3l0,0c0,2.5,0,2.5,0,2.5c4.8,0,4.8,0,4.8,0V20H122.2z M88,33.8c0-3,3.2-3.2,5.5-3.2
	s2.2,0,2.2,0c0,1.5-0.2,2.8-1,4c-0.8,1-2,1.5-3.5,1.5C89.2,36,88,35.5,88,33.8 M85.5,25.2c1.5-1.2,3.8-2,6-2c2.8,0,4.2,1,4.2,4.2
	c-2.8,0-2.8,0-2.8,0c-2.2,0-4.5,0-6.5,1s-3.2,2.8-3.2,5.5c0,3.8,3.2,5.8,6.8,5.8c2.2,0,4.8-1.2,6-3.2l0,0c0,0.5,0,1.8,0.2,2.8
	c4.2,0,4.2,0,4.2,0c0-1.5,0-2.8,0-4.2c-0.2-1.5-0.2-2.8-0.2-4.8c0-2.5,0-2.5,0-2.5c0-5.8-2.5-8.2-8.2-8.2c-2.2,0-4.8,0.8-6.8,1.5
	L85.5,25.2z M70.2,39.2c5,0,5,0,5,0c0-7,0-7,0-7c0-2.8,0-8,4.2-8c0.8,0,1.8,0.2,2.2,0.5c0-5,0-5,0-5c-0.5-0.2-1.2-0.2-1.5-0.2
	c-3,0-5.2,3-5.5,5l0,0c0-4.5,0-4.5,0-4.5c-4.5,0-4.5,0-4.5,0v19.2H70.2z M52.2,39.2c5.2,0,5.2,0,5.2,0c0-11.5,0-11.5,0-11.5
	c8.8,0,8.8,0,8.8,0c0-4,0-4,0-4c-8.8,0-8.8,0-8.8,0c0-6.5,0-6.5,0-6.5c9.2,0,9.2,0,9.2,0c0-4,0-4,0-4c-14.5,0-14.5,0-14.5,0
	L52.2,39.2L52.2,39.2z"/>
<polygon id="polygon56" class="st6" points="210.5,52.8 213,52.8 213,65.8 210.5,65.8 "/>
<path id="path58" class="st6" d="M223,54.5c-1.5,0-2.5,0.5-3.2,1.2c-0.8,1-1.2,2.2-1.2,3.5c0,1.5,0.5,2.5,1.2,3.2
	c0.8,1,1.8,1.5,3,1.5c0.8,0,1.2-0.2,1.8-0.2c0-3.5,0-3.5,0-3.5c-2.8,0-2.8,0-2.8,0c0-2,0-2,0-2c5.2,0,5.2,0,5.2,0c0,7,0,7,0,7
	c-1.5,0.5-2.8,0.8-4.2,0.8c-2,0-3.8-0.5-5-1.8c-1.2-1-2-2.5-2-4.8c0.2-4.8,2.5-7,7-7c1.5,0,2.8,0.2,3.8,0.5
	c-0.2,2.2-0.2,2.2-0.2,2.2C225.2,54.8,224.2,54.5,223,54.5L223,54.5z"/>
<path id="path60" class="st6" d="M230,52.8c3.5,0,3.5,0,3.5,0c2,0,3.8,0.2,5.2,1.2c0.5,0.5,1.2,1.2,1.5,2c0.5,0.8,0.5,2,0.5,3.2
	s0,2.2-0.5,3.2c-0.2,0.8-1,1.5-1.5,2c-0.8,0.5-1.5,0.8-2.5,1c-0.8,0.2-1.8,0.2-2.8,0.2c-3.5,0-3.5,0-3.5,0V52.8H230z M232.8,63.8
	c1.2,0,1.2,0,1.2,0c1.2,0,2.2-0.5,3-1.2s1.2-1.8,1.2-3.2s-0.5-2.5-1.2-3.2s-1.8-1.2-3-1.2s-1.2,0-1.2,0V63.8z"/>
<g id="Ebene_1_Kopie">
	<path id="path63" class="st7" d="M0,39.2c9.2-4.8,22.8-12.5,39-23.8c0-3.8,0-3.8,0-3.8C24.8,21,10.2,28.5,0,33.5V39.2z"/>
	<path id="path65" class="st7" d="M0,28c10.2-4.2,24.8-10.8,39-19.2C39,7,39,7,39,7C25.5,13.5,11.8,17.8,0,20.2V28z"/>
	<path id="path67" class="st7" d="M39,39.2c0-19,0-19,0-19c-9,7.5-17.8,14-25,19H39z"/>
	<path id="path69" class="st7" d="M9,39.2c7-4,15.5-9.5,24-15.8c2-1.5,4-3.2,6-4.8c0-2.2,0-2.2,0-2.2C26.5,25.8,13.5,33.8,3.5,39.2
		H9z"/>
	<path id="path71" class="st7" d="M0,17.5c11.2-2,25.2-5.5,39-12c0-2.2,0-2.2,0-2.2C25.2,9.5,11.5,12,0,13V17.5z"/>
	<path id="path73" class="st7" d="M0,0c0,11,0,11,0,11c0.8,0,1.8,0,2.5-0.2C12,10,25,8.5,39,2.5C39,0,39,0,39,0H0z"/>
	<path id="path75" class="st2" d="M0,11c0,2,0,2,0,2c11.5-1,25.2-3.5,39-9.8c0-0.8,0-0.8,0-0.8c-14,6-27,7.5-36.5,8.2
		C1.8,11,0.8,11,0,11L0,11z"/>
	<path id="path77" class="st2" d="M0,20.2C11.8,17.8,25.5,13.5,39,7c0-1.5,0-1.5,0-1.5c-13.8,6.5-27.8,10-39,12V20.2z"/>
	<path id="path79" class="st2" d="M0,33.5c10.2-5,24.8-12.5,39-21.8c0-3,0-3,0-3C24.8,17.2,10.2,23.8,0,28V33.5z"/>
	<path id="path81" class="st2" d="M9,39.2c5,0,5,0,5,0c7.2-5,16-11.5,25-19c0-1.5,0-1.5,0-1.5c-2,1.5-4,3.2-6,4.8
		C24.5,29.8,16,35.2,9,39.2L9,39.2z"/>
	<path id="path83" class="st2" d="M0,39.2c3.5,0,3.5,0,3.5,0c10-5.5,23-13.5,35.5-22.8c0-1,0-1,0-1C22.8,26.8,9.2,34.5,0,39.2
		L0,39.2z"/>
</g>
</svg>
