<?xml version="1.0" encoding="utf-8"?>
<!-- Generator: Adobe Illustrator 24.0.2, SVG Export Plug-In . SVG Version: 6.00 Build 0)  -->
<svg version="1.1" id="Layer_1" xmlns="http://www.w3.org/2000/svg" xmlns:xlink="http://www.w3.org/1999/xlink" x="0px" y="0px"
	 viewBox="0 0 1706.4 532.9" style="enable-background:new 0 0 1706.4 532.9;" xml:space="preserve">
<style type="text/css">
	.st0{fill:#4299e1;}
	.st1{fill:#f7fafc;}
</style>
<g>
	<path class="st0" d="M124.7,418.8c-7.9,0-15.1-5.2-17.4-13.2c-2.7-9.6,2.9-19.6,12.5-22.3c58.6-16.5,128.7-117.9,150-217l18.1-83.8
		l17.3,84c11.8,57.2,37.6,109.2,70.9,142.7c7,7.1,7,18.5-0.1,25.5c-7.1,7-18.5,7-25.5-0.1c-26.2-26.3-47.8-61.1-63.2-100.9
		c-34.5,90.4-98.3,167.6-157.7,184.3C128,418.6,126.3,418.8,124.7,418.8z"/>
	<path class="st1" d="M1535.7,235.4c5-5.5,10.3-10.5,16-15.1c5.6-4.6,11.7-8.6,18.2-11.9c6.4-3.3,13.4-5.9,20.8-7.7
		c7.4-1.9,15.5-2.8,24.2-2.8c13.4,0,25.7,2.9,36.9,8.6c11.2,5.7,20.9,14,28.9,24.9c8.1,10.9,14.4,24.2,18.9,40.1
		c4.5,15.8,6.8,33.9,6.8,54.2c0,18.7-2.5,36-7.6,51.9c-5.1,15.9-12.3,29.6-21.7,41.3c-9.4,11.6-20.6,20.7-33.8,27.2
		c-13.2,6.5-27.8,9.8-43.9,9.8c-13.6,0-25-2-34.5-6.1c-9.4-4-17.9-9.5-25.3-16.5v70.9c0,15.8-12.8,28.5-28.5,28.5h-38.3V202.8h41.1
		c8.4,0,14,3.9,16.7,11.6L1535.7,235.4z M1539.6,386.4c6.3,7.3,13.1,12.3,20.5,15.2c7.3,2.9,15.2,4.4,23.6,4.4
		c8.1,0,15.4-1.5,22-4.6c6.6-3.1,12.3-7.9,17.1-14.4c4.8-6.5,8.4-14.9,11-25c2.6-10.2,3.9-22.3,3.9-36.3c0-13.9-1.1-25.7-3.3-35.3
		c-2.2-9.7-5.2-17.5-9.2-23.5c-4-6-8.8-10.3-14.4-12.9c-5.6-2.7-11.9-4-18.9-4c-11.8,0-21.7,2.3-29.6,6.9
		c-8,4.6-15.5,11.3-22.6,20.2V386.4z"/>
	<path class="st1" d="M915.1,456.1c-11.3,0-21.3-1.7-30-5c-8.7-3.3-16.1-8-22-14.2c-6-6.1-10.5-13.6-13.6-22.3
		c-3.1-8.7-4.6-18.6-4.6-29.5V250.7h-23.5c-3.6,0-6.6-1.1-9.1-3.4c-2.5-2.3-3.8-5.6-3.8-10.2V211l39.9-7.3l13.6-64.6
		c1.8-7.3,6.7-10.9,14.8-10.9h34.8v76h44.4c11,0,20,8.9,20,20v26.5h-64.4v130.2c0,6.9,1.7,12.4,5,16.5c3.3,4,8,6,14.2,6
		c3.2,0,6-0.4,8.2-1.1c2.3-0.7,4.2-1.5,5.8-2.4c1.6-0.9,3.1-1.7,4.5-2.4c1.4-0.7,2.8-1.1,4.2-1.1c1.9,0,3.5,0.4,4.8,1.3
		c1.3,0.9,2.6,2.4,3.9,4.5l20.1,31.9c-9.2,7.3-19.6,12.7-31.2,16.5S927.5,456.1,915.1,456.1z"/>
	<path class="st1" d="M1211.9,301.1c-3.8-51.8-31.7-97.8-108.2-102.7C1006.1,195,958.3,299,991.1,381
		c30.6,89.5,162.1,100.7,221.4,34.4c-20-24.6-24.4-41.9-57.9-19.6c-36.8,20.6-81.2,11.1-98.6-23.6l123.1-55.5 M1050.1,291.5
		c8.3-50.6,74-59.8,96.6-24.1l-97.6,44.8l0.3-13.9C1049.5,295.9,1049.8,293.7,1050.1,291.5z"/>
	<path class="st1" d="M1453.4,301.1c-3.8-51.8-31.7-97.8-108.2-102.7C1247.6,195,1199.8,299,1232.6,381
		c30.6,89.5,162.1,100.7,221.4,34.4c-20-24.6-24.4-41.9-57.9-19.6c-36.8,20.6-81.2,11.1-98.6-23.6l123.1-55.5 M1291.6,291.5
		c8.3-50.6,74-59.8,96.6-24.1l-97.6,44.8l0.3-13.9C1291,295.9,1291.3,293.7,1291.6,291.5z"/>
	<g>
		<path class="st0" d="M592.6,354.4c1.8-2.6,4.1-4.7,7-6.4c2.9-1.7,6-2.5,9.2-2.5c4.4,0,9,1.6,13.8,4.8c1.6,1.1,3.3,2.2,5,3.3
			c-52.8-56-88.4-133.7-99.3-221.7L511.9,0l-32.6,128.9c-19.6,77.6-60.4,239-177.2,296c-69.6,34-159.5,27.2-267-20.2
			c-12.6-5.6-27.4,0.2-32.9,12.8c-5.6,12.6,0.2,27.4,12.8,32.9c69.2,30.5,132.6,45.7,189.8,45.7c43.4,0,83.3-8.8,119.3-26.4
			c97-47.3,147.8-149.1,176.9-234.7c18,53,44.9,100.5,78.9,140L592.6,354.4z"/>
	</g>
	<path class="st1" d="M794.4,168.4c-2.3,3.7-4.6,6.4-6.9,8.1c-2.3,1.7-5.4,2.5-9.1,2.5c-3.6,0-7.4-1.2-11.5-3.7
		c-4.1-2.5-8.9-5.2-14.4-8.1c-5.5-2.9-11.8-5.6-18.9-8.1c-7.1-2.5-15.4-3.7-24.9-3.7c-16.8,0-29.4,3.8-37.8,11.3
		c-8.4,7.5-12.6,17.3-12.6,29.4c0,7.7,2.3,14.2,6.9,19.2c4.6,5.1,10.7,9.5,18.2,13.2c7.5,3.7,16,7,25.5,9.9
		c9.5,2.9,19.3,6.1,29.3,9.5c10,3.5,19.8,7.5,29.3,12.2c9.5,4.7,18,10.6,25.5,17.7c7.5,7.1,13.6,15.8,18.2,26
		c4.6,10.2,6.9,22.7,6.9,37.4c0,16-2.8,30.9-8.3,44.9c-5.6,14-13.6,26.1-24.1,36.6c-10.5,10.4-23.4,18.6-38.8,24.6
		c-15.4,6-32.9,9-52.4,9c-11.1,0-22.2-1.1-33.3-3.4c-11.1-2.3-21.7-5.4-31.9-9.4c-10.3-4-19.9-8.9-28.9-14.5
		c-9-5.6-16.9-11.9-23.7-18.9l21.3-34.4c1.8-2.6,4.1-4.7,7-6.4c2.9-1.7,6-2.5,9.2-2.5c4.4,0,9,1.6,13.8,4.8
		c4.8,3.2,10.4,6.8,16.7,10.6c6.3,3.9,13.6,7.4,21.9,10.6c8.3,3.2,18.3,4.8,29.9,4.8c16.9,0,30-3.9,39.3-11.6
		c9.3-7.7,13.9-19.3,13.9-34.6c0-8.9-2.3-16.1-6.9-21.5c-4.6-5.5-10.6-10.1-18-13.8c-7.4-3.7-15.9-6.9-25.4-9.5
		c-9.5-2.7-19.3-5.6-29.3-8.8c-10-3.2-19.8-7.1-29.3-11.6c-9.5-4.5-18-10.5-25.4-17.9c-7.4-7.4-13.4-16.6-18-27.6
		c-4.6-11-6.9-24.6-6.9-40.9c0-13.1,2.6-25.7,7.7-38c5.2-12.3,12.7-23.2,22.7-32.7c10-9.5,22.3-17.2,36.9-23
		c14.6-5.8,31.3-8.7,50.2-8.7c21.1,0,40.7,3.3,58.7,9.8c18,6.5,33.2,15.6,45.6,27.2L794.4,168.4z"/>
</g>
</svg>
