<?xml version="1.0" encoding="utf-8"?>
<!-- Generator: Adobe Illustrator 24.1.2, SVG Export Plug-In . SVG Version: 6.00 Build 0)  -->
<svg version="1.1" id="Layer_1" xmlns="http://www.w3.org/2000/svg" xmlns:xlink="http://www.w3.org/1999/xlink" x="0px" y="0px"
	 viewBox="0 0 556.2 556.2" style="enable-background:new 0 0 556.2 556.2;" xml:space="preserve">
<style type="text/css">
	.st0{fill:#4299e1;}
</style>
<g>
	<path class="st0" d="M113.2,443.3c-7.2,0-13.9-4.7-16.1-11.9c-2.7-8.9,2.3-18.3,11.2-21c54.4-16.6,117.8-112.7,135.7-205.6
		l15.2-78.6l17.8,78.1c12.1,53.2,37.3,101.2,69.1,131.8c6.7,6.5,6.9,17.1,0.5,23.8c-6.5,6.7-17.1,6.9-23.8,0.5
		c-25-24.1-45.9-56.1-61-92.9c-30.3,85.2-88.4,158.4-143.5,175.3C116.5,443.1,114.9,443.3,113.2,443.3z"/>
	<path class="st0" d="M182.4,515.8c-50.3,0-106.2-11.7-167.3-35c-12-4.6-18.1-18.1-13.5-30.1c4.6-12,18.1-18.1,30.1-13.5
		c104.4,39.9,189.6,42.5,253.2,7.7c103.4-56.6,132.8-198.3,150.4-282.9l25.2-121.6l20.6,122.4c16.2,96,52.8,149.4,66.6,169.5
		c2.6,3.8,4.3,6.3,5.6,8.7c6.2,11.3,2.1,25.5-9.2,31.7c-11.3,6.2-25.4,2.1-31.6-9.1c-0.5-0.8-2-3-3.3-4.8
		c-9.2-13.5-31.1-45.2-49.9-96.2c-23.5,81.7-65.6,176-152,223.3C270.7,505.8,228.9,515.8,182.4,515.8z"/>
</g>
</svg>
